<?xml version="1.0" standalone="no"?>
<svg xmlns:xlink="http://www.w3.org/1999/xlink" id="wave" style="transform:rotate(180deg); transition: 0.3s" viewBox="0 0 1440 130" version="1.1" xmlns="http://www.w3.org/2000/svg"><defs><linearGradient id="sw-gradient-0" x1="0" x2="0" y1="1" y2="0"><stop stop-color="rgba(255, 249, 234, 1)" offset="0%"/><stop stop-color="rgba(255, 249, 234, 1)" offset="100%"/></linearGradient></defs><path style="transform:translate(0, 0px); opacity:1" fill="url(#sw-gradient-0)" d="M0,65L26.7,67.2C53.3,69,107,74,160,80.2C213.3,87,267,95,320,82.3C373.3,69,427,35,480,23.8C533.3,13,587,26,640,45.5C693.3,65,747,91,800,104C853.3,117,907,117,960,110.5C1013.3,104,1067,91,1120,88.8C1173.3,87,1227,95,1280,95.3C1333.3,95,1387,87,1440,78C1493.3,69,1547,61,1600,56.3C1653.3,52,1707,52,1760,43.3C1813.3,35,1867,17,1920,19.5C1973.3,22,2027,43,2080,45.5C2133.3,48,2187,30,2240,21.7C2293.3,13,2347,13,2400,15.2C2453.3,17,2507,22,2560,23.8C2613.3,26,2667,26,2720,41.2C2773.3,56,2827,87,2880,99.7C2933.3,113,2987,108,3040,108.3C3093.3,108,3147,113,3200,99.7C3253.3,87,3307,56,3360,45.5C3413.3,35,3467,43,3520,45.5C3573.3,48,3627,43,3680,34.7C3733.3,26,3787,13,3813,6.5L3840,0L3840,130L3813.3,130C3786.7,130,3733,130,3680,130C3626.7,130,3573,130,3520,130C3466.7,130,3413,130,3360,130C3306.7,130,3253,130,3200,130C3146.7,130,3093,130,3040,130C2986.7,130,2933,130,2880,130C2826.7,130,2773,130,2720,130C2666.7,130,2613,130,2560,130C2506.7,130,2453,130,2400,130C2346.7,130,2293,130,2240,130C2186.7,130,2133,130,2080,130C2026.7,130,1973,130,1920,130C1866.7,130,1813,130,1760,130C1706.7,130,1653,130,1600,130C1546.7,130,1493,130,1440,130C1386.7,130,1333,130,1280,130C1226.7,130,1173,130,1120,130C1066.7,130,1013,130,960,130C906.7,130,853,130,800,130C746.7,130,693,130,640,130C586.7,130,533,130,480,130C426.7,130,373,130,320,130C266.7,130,213,130,160,130C106.7,130,53,130,27,130L0,130Z"/></svg>